<svg width="24" height="24" viewBox="0 0 24 24" fill="none" xmlns="http://www.w3.org/2000/svg">
<path d="M12 4.59499C10.896 3.58899 9.48798 3.03699 8.00398 3.03699C6.42598 3.03699 4.93198 3.65999 3.79098 4.79499C1.43798 7.15799 1.43898 10.854 3.79298 13.207L11.125 20.539C11.295 20.838 11.623 21.031 12 21.031C12.322 21.031 12.609 20.868 12.792 20.622L20.207 13.207C22.561 10.853 22.561 7.15799 20.205 4.79099C19.068 3.65999 17.574 3.03699 15.996 3.03699C14.513 3.03699 13.104 3.58899 12 4.59499ZM18.791 6.20499C20.354 7.77599 20.355 10.23 18.793 11.793L12 18.586L5.20698 11.793C3.64498 10.23 3.64598 7.77599 5.20498 6.20899C5.96498 5.45299 6.95898 5.03699 8.00398 5.03699C9.04898 5.03699 10.039 5.45299 10.793 6.20699L11.293 6.70699C11.684 7.09799 12.316 7.09799 12.707 6.70699L13.207 6.20699C14.719 4.69799 17.281 4.70199 18.791 6.20499Z" fill="#484848"/>
</svg>
